<svg xmlns="http://www.w3.org/2000/svg" viewBox="0 0 24 24"><symbol fill="none" viewBox="0 0 24 24" id="aa374e3e-65c4-4a75-8dd3-c5376fb4118d"><path fill="#FF6127" d="M13.74 5.06a1.58 1.58 0 0 0-.953.295c-.27.197-.465.472-.552.782L8.565 18.94h2.585a1.55 1.55 0 0 0 .93-.296c.27-.19.467-.457.561-.76l2.714-9.426h2.085c.31-.001.614.068.889.201.263.125.493.303.672.52.176.219.299.47.362.736a1.6 1.6 0 0 1-.028.852 1.82 1.82 0 0 1-.695.991c-.343.25-.765.385-1.2.385h-1.08a1.58 1.58 0 0 0-.944.295 1.47 1.47 0 0 0-.56.761l-.673 2.344h3.366a5.75 5.75 0 0 0 2.577-.6 5.3 5.3 0 0 0 1.964-1.668 5 5 0 0 0 .743-1.532l.076-.262c.234-.773.26-1.588.073-2.372a5 5 0 0 0-1.022-2.055 5.5 5.5 0 0 0-1.868-1.45 5.6 5.6 0 0 0-2.467-.548h-3.882zM6.446 8.476a5.8 5.8 0 0 0-1.788.28c-.557.18-1.08.44-1.55.772a5.13 5.13 0 0 0-1.962 2.733l-.076.261a4.73 4.73 0 0 0-.064 2.367c.168.747.514 1.45 1.012 2.055a5.5 5.5 0 0 0 1.872 1.45 5.6 5.6 0 0 0 2.467.549h1.3l.746-2.571a.56.56 0 0 0-.12-.563.66.66 0 0 0-.245-.188.7.7 0 0 0-.31-.063H6.541a2.1 2.1 0 0 1-.894-.193 1.86 1.86 0 0 1-.673-.51 1.86 1.86 0 0 1-.356-.735c-.069-.294-.06-.6.028-.89a1.9 1.9 0 0 1 .717-.985 2 2 0 0 1 1.178-.366h1.953a1.58 1.58 0 0 0 .948-.298c.272-.196.468-.468.558-.777l.65-2.328z"></path></symbol><use href="#aa374e3e-65c4-4a75-8dd3-c5376fb4118d"></use></svg>